<?xml version="1.0" encoding="UTF-8"?>
<svg id="Floor1_Objects" xmlns="http://www.w3.org/2000/svg" viewBox="0 0 1113 1083.67">
  <defs>
    <style>
      .cls-1 {
        fill: #ddd;
      }

      .cls-2 {
        fill: #fff;
      }

      .outer-wall-stroke {
        fill: pink;
      }

      .room-stroke {
        fill: green
      }
    </style>
  </defs>
  <g id="Outer_Walls">
    <polygon class="cls-2" points="198.5 24.5 679.99 24.5 679.99 586.77 1067.55 586.77 1067.55 1061.33 58.12 1061.33 58.12 786.49 246.5 786.49 246.5 135.5 198.5 135.5 198.5 24.5"/>
    <path class="outer-wall-stroke" d="M198.5,30.5h461.76c6.1,0,12.83.81,18.89,0,.27-.04.57,0,.85,0l-6-6v493.37c0,22.6-.81,45.36,0,67.95.01.32,0,.64,0,.95,0,3.24,2.75,6,6,6h371.63c4.87,0,10.43.76,15.26,0,.21-.03.45,0,.66,0l-6-6v455.23c0,5.94-.86,12.62,0,18.52.04.26,0,.55,0,.81l6-6H98.98c-12.96,0-26.2-.79-39.15,0-.57.03-1.14,0-1.71,0l6,6v-274.85l-6,6h188.38c3.24,0,6-2.75,6-6V215.28c0-26.16.82-52.48,0-78.63-.01-.38,0-.76,0-1.15,0-3.24-2.75-6-6-6h-48l6,6V24.5c0-7.72-12-7.73-12,0v111c0,3.24,2.75,6,6,6h48l-6-6v624.69c0,8.22-.85,16.96,0,25.15.04.37,0,.77,0,1.15l6-6H58.12c-3.24,0-6,2.75-6,6v274.85c0,3.24,2.75,6,6,6h968.57c13.04,0,26.11.25,39.15,0,.57-.01,1.14,0,1.71,0,3.24,0,6-2.75,6-6v-416.21c0-19.12.8-38.43,0-57.54-.01-.27,0-.54,0-.81,0-3.24-2.75-6-6-6h-371.63c-4.87,0-10.43-.76-15.26,0-.21.03-.45,0-.66,0l6,6V93.4c0-22.6.81-45.36,0-67.95-.01-.32,0-.64,0-.95,0-3.24-2.75-6-6-6h-422.08c-19.47,0-39.11-.77-58.57,0-.28.01-.56,0-.85,0-7.72,0-7.73,12,0,12Z"/>
  </g>
  <g id="Room1">
    <rect class="cls-1" x="246.5" y="135.5" width="186.33" height="213.99"/>
    <path class="room-stroke" d="M246.5,141.5h186.33l-6-6v213.99l6-6h-186.33l6,6v-213.99c0-7.72-12-7.73-12,0v213.99c0,3.24,2.75,6,6,6h186.33c3.24,0,6-2.75,6-6v-213.99c0-3.24-2.75-6-6-6h-186.33c-7.72,0-7.73,12,0,12Z"/>
  </g>
  <g id="Room2">
    <rect class="cls-1" x="246.5" y="349.49" width="186.33" height="219.48"/>
    <path class="room-stroke" d="M246.5,355.49h186.33l-6-6v219.48l6-6h-186.33l6,6v-219.48c0-7.72-12-7.73-12,0v219.48c0,3.24,2.75,6,6,6h186.33c3.24,0,6-2.75,6-6v-219.48c0-3.24-2.75-6-6-6h-186.33c-7.72,0-7.73,12,0,12Z"/>
  </g>
  <g id="Room3">
    <rect class="cls-1" x="246.5" y="568.98" width="186.33" height="217.51"/>
    <path class="room-stroke" d="M240.5,568.98v217.51c0,3.24,2.75,6,6,6h186.33c3.24,0,6-2.75,6-6v-217.51c0-3.24-2.75-6-6-6h-186.33c-7.72,0-7.73,12,0,12h186.33l-6-6v217.51l6-6h-186.33l6,6v-217.51c0-7.72-12-7.73-12,0Z"/>
  </g>
  <g id="Room4">
    <rect class="cls-1" x="58.12" y="786.49" width="231.35" height="274.85"/>
    <path class="room-stroke" d="M58.12,792.49h231.35l-6-6v274.85l6-6H58.12l6,6v-274.85c0-7.72-12-7.73-12,0v274.85c0,3.24,2.75,6,6,6h231.35c3.24,0,6-2.75,6-6v-274.85c0-3.24-2.75-6-6-6H58.12c-7.72,0-7.73,12,0,12Z"/>
  </g>
</svg>